<svg width="24" height="25" viewBox="0 0 24 25" fill="none" xmlns="http://www.w3.org/2000/svg">
<path d="M4 0H2C0.89543 0 0 0.89543 0 2V23C0 24.1046 0.89543 25 2 25H4C5.10457 25 6 24.1046 6 23V2C6 0.89543 5.10457 0 4 0Z" fill="#5FC79B"/>
<path opacity="0.75" d="M13 0H11C9.89543 0 9 0.89543 9 2V23C9 24.1046 9.89543 25 11 25H13C14.1046 25 15 24.1046 15 23V2C15 0.89543 14.1046 0 13 0Z" fill="#5FC79B"/>
<path opacity="0.5" d="M22 0H20C18.8954 0 18 0.89543 18 2V23C18 24.1046 18.8954 25 20 25H22C23.1046 25 24 24.1046 24 23V2C24 0.89543 23.1046 0 22 0Z" fill="#5FC79B"/>
</svg>
